<svg xmlns="http://www.w3.org/2000/svg" viewBox="0 0 512 512">
  <rect width="512" height="512" rx="108" fill="#212529"/>
  <rect x="104" y="96" width="304" height="320" rx="40" fill="#f8f9fa"/>
  <rect x="136" y="144" width="240" height="40" rx="12" fill="#adb5bd"/>
  <circle cx="256" cy="276" r="86" fill="#0d6efd"/>
  <path fill="#fff" d="M247 338v-28c-25-4-43-18-48-40h35c4 9 12 15 25 15 14 0 23-6 23-16 0-9-7-13-30-18-31-7-49-19-49-45 0-22 17-40 44-45v-25h24v25c24 5 39 19 44 39h-34c-4-8-11-13-22-13-13 0-21 6-21 16 0 9 8 13 29 18 33 8 51 20 51 46 0 23-18 41-47 46v29h-24z"/>
  <rect x="152" y="372" width="208" height="20" rx="10" fill="#adb5bd"/>
</svg>
